# Blender v3.5.0 OBJ File: ''
# www.blender.org
mtllib RoadVertical.mtl
o 立方体.002_立方体.007
v -0.488807 0.994353 1.000000
v -0.488807 0.495384 -1.000000
v -0.488807 0.495384 1.000000
v 0.488807 0.994353 -1.000000
v -0.488807 0.994353 -1.000000
v 0.488807 0.495384 1.000000
v 0.488807 0.495384 -1.000000
v 0.488807 0.994353 1.000000
vt 0.555193 0.902252
vt 0.700691 0.742014
vt 0.700691 0.902252
vt 0.715431 0.421539
vt 0.860929 0.581776
vt 0.715431 0.581776
vt 0.700691 0.902252
vt 0.846189 0.742014
vt 0.846189 0.902252
vt 0.715431 0.742014
vt 0.860929 0.581776
vt 0.860929 0.742014
vt 0.555193 0.742014
vt 0.394956 0.902252
vt 0.394956 0.742014
vt 0.715431 0.581776
vt 0.555193 0.742014
vt 0.555193 0.581776
vt 0.860929 0.421539
vt 0.700691 0.742014
vt 0.715431 0.581776
vt 0.715431 0.742014
vn -1.0000 0.0000 0.0000
vn 0.0000 -0.0000 -1.0000
vn 1.0000 0.0000 0.0000
vn 0.0000 0.0000 1.0000
vn 0.0000 1.0000 -0.0000
vn 0.0000 -1.0000 0.0000
usemtl マテリアル.001
s 1
f 1/1/1 2/2/1 3/3/1
f 4/4/2 2/5/2 5/6/2
f 4/7/3 6/8/3 7/9/3
f 8/10/4 3/11/4 6/12/4
f 5/13/5 8/14/5 4/15/5
f 7/16/6 3/17/6 2/18/6
f 1/1/1 5/13/1 2/2/1
f 4/4/2 7/19/2 2/5/2
f 4/7/3 8/20/3 6/8/3
f 8/10/4 1/21/4 3/11/4
f 5/13/5 1/1/5 8/14/5
f 7/16/6 6/22/6 3/17/6
